<svg xmlns="http://www.w3.org/2000/svg" viewBox="0 0 1200 800">
  <defs>
    <linearGradient id="skyGradient" x1="0%" y1="0%" x2="0%" y2="100%">
      <stop offset="0%" style="stop-color:#87CEEB;stop-opacity:1" />
      <stop offset="50%" style="stop-color:#B0E0E6;stop-opacity:1" />
      <stop offset="100%" style="stop-color:#E0F6FF;stop-opacity:1" />
    </linearGradient>
    <linearGradient id="seaGradient" x1="0%" y1="0%" x2="0%" y2="100%">
      <stop offset="0%" style="stop-color:#4682B4;stop-opacity:1" />
      <stop offset="50%" style="stop-color:#5F9EA0;stop-opacity:1" />
      <stop offset="100%" style="stop-color:#2E8B57;stop-opacity:1" />
    </linearGradient>
  </defs>
  
  <!-- Sky background -->
  <rect width="1200" height="500" fill="url(#skyGradient)"/>
  
  <!-- Sea background -->
  <rect y="500" width="1200" height="300" fill="url(#seaGradient)"/>
  
  <!-- Horizon line -->
  <line x1="0" y1="500" x2="1200" y2="500" stroke="#ffffff" stroke-width="2" opacity="0.3"/>
  
  <!-- Clouds -->
  <ellipse cx="150" cy="150" rx="80" ry="40" fill="#ffffff" opacity="0.6"/>
  <ellipse cx="170" cy="140" rx="60" ry="30" fill="#ffffff" opacity="0.6"/>
  <ellipse cx="130" cy="140" rx="50" ry="25" fill="#ffffff" opacity="0.6"/>
  
  <ellipse cx="350" cy="200" rx="90" ry="45" fill="#ffffff" opacity="0.6"/>
  <ellipse cx="380" cy="190" rx="70" ry="35" fill="#ffffff" opacity="0.6"/>
  <ellipse cx="320" cy="190" rx="60" ry="30" fill="#ffffff" opacity="0.6"/>
  
  <ellipse cx="800" cy="120" rx="100" ry="50" fill="#ffffff" opacity="0.6"/>
  <ellipse cx="840" cy="110" rx="80" ry="40" fill="#ffffff" opacity="0.6"/>
  <ellipse cx="760" cy="110" rx="70" ry="35" fill="#ffffff" opacity="0.6"/>
  
  <ellipse cx="1000" cy="180" rx="85" ry="42" fill="#ffffff" opacity="0.6"/>
  <ellipse cx="1030" cy="170" rx="65" ry="32" fill="#ffffff" opacity="0.6"/>
  <ellipse cx="970" cy="170" rx="55" ry="28" fill="#ffffff" opacity="0.6"/>
  
  
  <!-- Fishing boat on the horizon with trawl net -->
  <g transform="translate(700, 485) scale(0.8)" opacity="0.9">
    <!-- Boat hull -->
    <path d="M 0 15 Q 3 20 10 20 L 35 20 Q 40 20 43 15 L 43 8 Q 43 5 40 5 L 3 5 Q 0 5 0 8 Z" fill="#8B4513"/>
    
    <!-- Boat cabin -->
    <rect x="12" y="0" width="18" height="8" fill="#D2691E"/>
    <rect x="13" y="1" width="16" height="5" fill="#4682B4" opacity="0.4"/>
    
    <!-- Mast -->
    <line x1="21" y1="0" x2="21" y2="-12" stroke="#654321" stroke-width="1.5"/>
    
    <!-- Trawl net extending into water -->
    <g transform="translate(43, 18)">
      <!-- Net cables -->
      <line x1="0" y1="0" x2="25" y2="8" stroke="#8B4513" stroke-width="1"/>
      <line x1="0" y1="2" x2="25" y2="10" stroke="#8B4513" stroke-width="1"/>
      
      <!-- Trawl net -->
      <path d="M 20 8 Q 30 12 40 8 Q 50 5 60 8 Q 70 12 80 8" stroke="#696969" stroke-width="1.5" fill="none" opacity="0.7"/>
      <path d="M 22 10 Q 32 14 42 10 Q 52 7 62 10 Q 72 14 82 10" stroke="#696969" stroke-width="1" fill="none" opacity="0.6"/>
      <path d="M 24 12 Q 34 16 44 12 Q 54 9 64 12 Q 74 16 84 12" stroke="#696969" stroke-width="1" fill="none" opacity="0.5"/>
    </g>
    
    <!-- Small wake behind boat -->
    <path d="M -3 18 Q 0 16 3 18" stroke="#ffffff" stroke-width="1" fill="none" opacity="0.6"/>
    <path d="M -5 20 Q 0 18 5 20" stroke="#ffffff" stroke-width="1" fill="none" opacity="0.4"/>
  </g>
  
  <!-- Sun rays -->
  <g opacity="0.3">
    <line x1="100" y1="100" x2="120" y2="80" stroke="#ffffff" stroke-width="2"/>
    <line x1="90" y1="120" x2="130" y2="100" stroke="#ffffff" stroke-width="2"/>
    <line x1="110" y1="140" x2="110" y2="100" stroke="#ffffff" stroke-width="2"/>
  </g>
  
  <!-- Ocean waves -->
  <g opacity="0.4">
    <path d="M 0 550 Q 50 545 100 550 Q 150 555 200 550 Q 250 545 300 550 Q 350 555 400 550 Q 450 545 500 550 Q 550 555 600 550 Q 650 545 700 550 Q 750 555 800 550 Q 850 545 900 550 Q 950 555 1000 550 Q 1050 545 1100 550 Q 1150 555 1200 550" stroke="#ffffff" stroke-width="3" fill="none"/>
    <path d="M 0 600 Q 60 595 120 600 Q 180 605 240 600 Q 300 595 360 600 Q 420 605 480 600 Q 540 595 600 600 Q 660 605 720 600 Q 780 595 840 600 Q 900 605 960 600 Q 1020 595 1080 600 Q 1140 605 1200 600" stroke="#ffffff" stroke-width="2" fill="none"/>
  </g>
</svg>