<svg width="200" height="200" viewBox="0 0 200 200" xmlns="http://www.w3.org/2000/svg">
  <defs>
    <!-- Enhanced gradients with better contrast -->
    <linearGradient id="shipGradient" x1="0%" y1="0%" x2="100%" y2="100%">
      <stop offset="0%" style="stop-color:#2563EB;stop-opacity:1" />
      <stop offset="50%" style="stop-color:#7C3AED;stop-opacity:1" />
      <stop offset="100%" style="stop-color:#0891B2;stop-opacity:1" />
    </linearGradient>
    
    <linearGradient id="compassGradient" x1="0%" y1="0%" x2="100%" y2="100%">
      <stop offset="0%" style="stop-color:#DC2626;stop-opacity:1" />
      <stop offset="100%" style="stop-color:#EA580C;stop-opacity:1" />
    </linearGradient>
    
    <linearGradient id="waveGradient" x1="0%" y1="0%" x2="100%" y2="0%">
      <stop offset="0%" style="stop-color:#0284C7;stop-opacity:1" />
      <stop offset="50%" style="stop-color:#2563EB;stop-opacity:1" />
      <stop offset="100%" style="stop-color:#7C3AED;stop-opacity:1" />
    </linearGradient>
    
    <linearGradient id="calcGradient" x1="0%" y1="0%" x2="100%" y2="100%">
      <stop offset="0%" style="stop-color:#059669;stop-opacity:1" />
      <stop offset="100%" style="stop-color:#047857;stop-opacity:1" />
    </linearGradient>
    
    <!-- Enhanced glow effects -->
    <filter id="glow">
      <feGaussianBlur stdDeviation="2" result="coloredBlur"/>
      <feMerge> 
        <feMergeNode in="coloredBlur"/>
        <feMergeNode in="SourceGraphic"/>
      </feMerge>
    </filter>
    
    <!-- Drop shadow for better definition -->
    <filter id="dropShadow">
      <feDropShadow dx="2" dy="2" stdDeviation="3" flood-color="#000000" flood-opacity="0.3"/>
    </filter>
  </defs>
  
  <!-- Enhanced background circle with stronger definition -->
  <circle cx="100" cy="100" r="95" fill="url(#shipGradient)" opacity="0.15" stroke="url(#shipGradient)" stroke-width="3"/>
  
  <!-- Main ship body with sharper definition -->
  <path d="M 40 140 L 160 140 L 150 120 L 140 110 L 130 105 L 120 100 L 110 95 L 100 90 L 90 95 L 80 100 L 70 105 L 60 110 L 50 120 Z" 
        fill="url(#shipGradient)" stroke="#1E40AF" stroke-width="3" filter="url(#dropShadow)"/>
  
  <!-- Enhanced ship deck with better contrast -->
  <rect x="60" y="110" width="80" height="10" fill="#1E40AF" opacity="0.9" stroke="#1E3A8A" stroke-width="1"/>
  
  <!-- Enhanced ship bridge with sharper lines -->
  <rect x="85" y="85" width="30" height="25" fill="#1E40AF" opacity="0.95" stroke="#1E3A8A" stroke-width="2"/>
  <rect x="90" y="90" width="20" height="15" fill="#3B82F6" opacity="0.8" stroke="#2563EB" stroke-width="1"/>
  
  <!-- Enhanced ship mast with stronger definition -->
  <line x1="100" y1="85" x2="100" y2="60" stroke="#1E40AF" stroke-width="4" filter="url(#dropShadow)"/>
  
  <!-- Enhanced compass rose with better definition -->
  <g transform="translate(100, 60)">
    <circle cx="0" cy="0" r="18" fill="url(#compassGradient)" stroke="#DC2626" stroke-width="2" filter="url(#dropShadow)"/>
    <circle cx="0" cy="0" r="14" fill="white" opacity="0.95"/>
    <circle cx="0" cy="0" r="10" fill="url(#compassGradient)" opacity="0.8"/>
    
    <!-- Enhanced compass directions with better fonts -->
    <text x="0" y="-22" text-anchor="middle" font-size="10" font-weight="bold" fill="#DC2626" font-family="Arial, sans-serif">N</text>
    <text x="0" y="24" text-anchor="middle" font-size="10" font-weight="bold" fill="#DC2626" font-family="Arial, sans-serif">S</text>
    <text x="-22" y="4" text-anchor="middle" font-size="10" font-weight="bold" fill="#DC2626" font-family="Arial, sans-serif">W</text>
    <text x="22" y="4" text-anchor="middle" font-size="10" font-weight="bold" fill="#DC2626" font-family="Arial, sans-serif">E</text>
    
    <!-- Enhanced compass needle with stronger lines -->
    <line x1="0" y1="-12" x2="0" y2="12" stroke="#DC2626" stroke-width="3"/>
    <line x1="-12" y1="0" x2="12" y2="0" stroke="#DC2626" stroke-width="2"/>
  </g>
  
  <!-- Enhanced waves with stronger definition -->
  <g transform="translate(0, 150)">
    <path d="M 0 0 Q 25 12 50 0 T 100 0 T 150 0 T 200 0" 
          fill="none" stroke="url(#waveGradient)" stroke-width="4" opacity="0.9"/>
    <path d="M 0 6 Q 25 18 50 6 T 100 6 T 150 6 T 200 6" 
          fill="none" stroke="url(#waveGradient)" stroke-width="3" opacity="0.7"/>
    <path d="M 0 12 Q 25 24 50 12 T 100 12 T 150 12 T 200 12" 
          fill="none" stroke="url(#waveGradient)" stroke-width="2" opacity="0.5"/>
  </g>
  
  <!-- Enhanced calculator elements with better definition -->
  <g transform="translate(120, 30)">
    <!-- Enhanced calculator body -->
    <rect x="0" y="0" width="65" height="45" rx="6" fill="url(#calcGradient)" stroke="#047857" stroke-width="3" filter="url(#dropShadow)"/>
    
    <!-- Enhanced calculator screen -->
    <rect x="6" y="6" width="53" height="14" rx="3" fill="#1F2937" opacity="0.95" stroke="#374151" stroke-width="1"/>
    <text x="32" y="16" text-anchor="middle" font-size="9" font-family="monospace" fill="#10B981" font-weight="bold">MC</text>
    
    <!-- Enhanced calculator buttons with better spacing -->
    <rect x="6" y="22" width="13" height="9" rx="2" fill="#374151" opacity="0.9" stroke="#4B5563" stroke-width="1"/>
    <rect x="22" y="22" width="13" height="9" rx="2" fill="#374151" opacity="0.9" stroke="#4B5563" stroke-width="1"/>
    <rect x="38" y="22" width="13" height="9" rx="2" fill="#374151" opacity="0.9" stroke="#4B5563" stroke-width="1"/>
    <rect x="54" y="22" width="13" height="9" rx="2" fill="#374151" opacity="0.9" stroke="#4B5563" stroke-width="1"/>
    
    <rect x="6" y="33" width="13" height="9" rx="2" fill="#374151" opacity="0.9" stroke="#4B5563" stroke-width="1"/>
    <rect x="22" y="33" width="13" height="9" rx="2" fill="#374151" opacity="0.9" stroke="#4B5563" stroke-width="1"/>
    <rect x="38" y="33" width="13" height="9" rx="2" fill="#374151" opacity="0.9" stroke="#4B5563" stroke-width="1"/>
    <rect x="54" y="33" width="13" height="9" rx="2" fill="#374151" opacity="0.9" stroke="#4B5563" stroke-width="1"/>
  </g>
  
  <!-- Enhanced mathematical symbols with better definition -->
  <g opacity="0.8">
    <text x="25" y="45" font-size="14" font-weight="bold" fill="#2563EB" font-family="Arial, sans-serif">∫</text>
    <text x="170" y="80" font-size="12" font-weight="bold" fill="#7C3AED" font-family="Arial, sans-serif">∑</text>
    <text x="30" y="100" font-size="16" font-weight="bold" fill="#0891B2" font-family="Arial, sans-serif">π</text>
    <text x="160" y="120" font-size="13" font-weight="bold" fill="#DC2626" font-family="Arial, sans-serif">√</text>
  </g>
  
  <!-- Enhanced anchor symbol with better definition -->
  <g transform="translate(40, 80)">
    <path d="M 0 0 L 0 18 M -6 18 L 6 18 M -4 12 L 4 12" 
          stroke="#1E40AF" stroke-width="3" fill="none" filter="url(#dropShadow)"/>
    <circle cx="0" cy="0" r="4" fill="#1E40AF" stroke="#1E3A8A" stroke-width="1"/>
  </g>
  
  <!-- Enhanced navigation elements -->
  <g transform="translate(160, 100)">
    <!-- Enhanced sextant -->
    <circle cx="0" cy="0" r="14" fill="none" stroke="#F59E0B" stroke-width="3" filter="url(#dropShadow)"/>
    <line x1="-10" y1="-10" x2="10" y2="10" stroke="#F59E0B" stroke-width="2"/>
    <line x1="10" y1="-10" x2="-10" y2="10" stroke="#F59E0B" stroke-width="2"/>
  </g>
  
  <!-- Enhanced glow effect for main elements -->
  <circle cx="100" cy="100" r="95" fill="none" stroke="url(#shipGradient)" stroke-width="2" opacity="0.4" filter="url(#glow)"/>
</svg>