<svg width="1080" height="1920" viewBox="0 0 1080 1920" fill="none" xmlns="http://www.w3.org/2000/svg">
  <!-- Ocean gradient background -->
  <defs>
    <linearGradient id="oceanGradient" x1="0%" y1="0%" x2="0%" y2="100%">
      <stop offset="0%" style="stop-color:#1e40af;stop-opacity:1" />
      <stop offset="30%" style="stop-color:#1e3a8a;stop-opacity:1" />
      <stop offset="70%" style="stop-color:#1e3a8a;stop-opacity:1" />
      <stop offset="100%" style="stop-color:#0f172a;stop-opacity:1" />
    </linearGradient>
    <linearGradient id="waveGradient" x1="0%" y1="0%" x2="0%" y2="100%">
      <stop offset="0%" style="stop-color:#3b82f6;stop-opacity:0.6" />
      <stop offset="100%" style="stop-color:#1e40af;stop-opacity:0.3" />
    </linearGradient>
    <filter id="glow">
      <feGaussianBlur stdDeviation="3" result="coloredBlur"/>
      <feMerge> 
        <feMergeNode in="coloredBlur"/>
        <feMergeNode in="SourceGraphic"/>
      </feMerge>
    </filter>
  </defs>
  
  <!-- Main ocean background -->
  <rect width="1080" height="1920" fill="url(#oceanGradient)"/>
  
  <!-- Distant horizon line -->
  <line x1="0" y1="600" x2="1080" y2="580" stroke="#64748b" stroke-width="2" opacity="0.3"/>
  
  <!-- Ocean waves - bottom section -->
  <path d="M0,1400 Q270,1380 540,1400 T1080,1400 L1080,1920 L0,1920 Z" fill="url(#waveGradient)"/>
  <path d="M0,1450 Q135,1430 270,1450 T540,1450 Q675,1430 810,1450 T1080,1450 L1080,1920 L0,1920 Z" fill="url(#waveGradient)" opacity="0.7"/>
  
  <!-- Ship silhouette in the distance -->
  <g transform="translate(750, 580)" opacity="0.4">
    <!-- Ship hull -->
    <path d="M0,20 L80,20 L85,10 L85,0 L-5,0 L-5,10 Z" fill="#374151"/>
    <!-- Ship superstructure -->
    <rect x="10" y="-10" width="30" height="10" fill="#374151"/>
    <rect x="20" y="-20" width="15" height="10" fill="#374151"/>
    <!-- Mast -->
    <line x1="40" y1="-20" x2="40" y2="-40" stroke="#374151" stroke-width="1"/>
    <!-- Ship lights -->
    <circle cx="75" r="1" fill="#fbbf24" filter="url(#glow)"/>
  </g>
  
  <!-- Lighthouse silhouette -->
  <g transform="translate(200, 500)" opacity="0.3">
    <!-- Lighthouse tower -->
    <rect x="0" y="0" width="12" height="80" fill="#374151"/>
    <!-- Lighthouse top -->
    <rect x="-2" y="-5" width="16" height="8" fill="#374151"/>
    <!-- Light beam -->
    <path d="M8,-5 L100,-20 L100,20 L8,5 Z" fill="#fbbf24" opacity="0.2"/>
  </g>
  
  <!-- Seagulls -->
  <g opacity="0.3">
    <path d="M300,400 Q305,395 310,400 Q315,395 320,400" stroke="#e5e7eb" stroke-width="2" fill="none"/>
    <path d="M450,350 Q455,345 460,350 Q465,345 470,350" stroke="#e5e7eb" stroke-width="2" fill="none"/>
    <path d="M600,420 Q605,415 610,420 Q615,415 620,420" stroke="#e5e7eb" stroke-width="2" fill="none"/>
  </g>
  
  <!-- Stars in the sky -->
  <g opacity="0.6">
    <circle cx="150" cy="200" r="1" fill="#f8fafc"/>
    <circle cx="300" cy="150" r="1" fill="#f8fafc"/>
    <circle cx="500" cy="180" r="1" fill="#f8fafc"/>
    <circle cx="700" cy="120" r="1" fill="#f8fafc"/>
    <circle cx="850" cy="170" r="1" fill="#f8fafc"/>
    <circle cx="950" cy="100" r="1" fill="#f8fafc"/>
  </g>
  
  <!-- Compass rose in corner -->
  <g transform="translate(100, 1700)" opacity="0.2">
    <circle cx="0" cy="0" r="40" fill="none" stroke="#e5e7eb" stroke-width="1"/>
    <line x1="-35" y1="0" x2="35" y2="0" stroke="#e5e7eb" stroke-width="1"/>
    <line x1="0" y1="-35" x2="0" y2="35" stroke="#e5e7eb" stroke-width="1"/>
    <polygon points="0,-35 5,-25 0,-30 -5,-25" fill="#e5e7eb"/>
    <text x="0" y="-45" text-anchor="middle" fill="#e5e7eb" font-size="12" font-family="serif">N</text>
  </g>
  
  <!-- Anchor silhouette -->
  <g transform="translate(900, 1600)" opacity="0.15">
    <path d="M0,0 L0,30 M-10,25 L10,25 M-8,30 Q-8,35 -3,35 L3,35 Q8,35 8,30" stroke="#e5e7eb" stroke-width="2" fill="none"/>
    <circle cx="0" cy="5" r="4" fill="none" stroke="#e5e7eb" stroke-width="2"/>
  </g>
</svg>